<mxfile host="app.diagrams.net" modified="2024-05-13T01:13:24.794Z" agent="Mozilla/5.0 (Windows NT 10.0; Win64; x64) AppleWebKit/537.36 (KHTML, like Gecko) Chrome/124.0.0.0 Safari/537.36" etag="X6ItCaFjKJbUKXv48JvJ" version="24.4.0" type="github">
  <diagram id="F5sVqwGNpYqskp_Q-RI-" name="EXERCISE-2">
    <mxGraphModel dx="1120" dy="434" grid="1" gridSize="10" guides="1" tooltips="1" connect="1" arrows="1" fold="1" page="1" pageScale="1" pageWidth="827" pageHeight="1169" math="0" shadow="0">
      <root>
        <mxCell id="0" />
        <mxCell id="1" parent="0" />
        <mxCell id="hSPSb0nQ-uBle7PO0G4F-4" value="" style="edgeStyle=orthogonalEdgeStyle;rounded=0;orthogonalLoop=1;jettySize=auto;html=1;" parent="1" source="B0vDo9ewTF-ujmgnzNS3-1" target="hSPSb0nQ-uBle7PO0G4F-3" edge="1">
          <mxGeometry relative="1" as="geometry" />
        </mxCell>
        <mxCell id="B0vDo9ewTF-ujmgnzNS3-1" value="INICIO" style="rounded=1;whiteSpace=wrap;html=1;" parent="1" vertex="1">
          <mxGeometry x="354" y="40" width="120" height="60" as="geometry" />
        </mxCell>
        <mxCell id="hSPSb0nQ-uBle7PO0G4F-6" value="" style="edgeStyle=orthogonalEdgeStyle;rounded=0;orthogonalLoop=1;jettySize=auto;html=1;" parent="1" source="hSPSb0nQ-uBle7PO0G4F-3" target="hSPSb0nQ-uBle7PO0G4F-5" edge="1">
          <mxGeometry relative="1" as="geometry" />
        </mxCell>
        <mxCell id="hSPSb0nQ-uBle7PO0G4F-3" value="A" style="shape=parallelogram;perimeter=parallelogramPerimeter;whiteSpace=wrap;html=1;fixedSize=1;" parent="1" vertex="1">
          <mxGeometry x="354" y="140" width="120" height="30" as="geometry" />
        </mxCell>
        <mxCell id="hSPSb0nQ-uBle7PO0G4F-8" value="" style="edgeStyle=orthogonalEdgeStyle;rounded=0;orthogonalLoop=1;jettySize=auto;html=1;" parent="1" source="hSPSb0nQ-uBle7PO0G4F-5" target="hSPSb0nQ-uBle7PO0G4F-7" edge="1">
          <mxGeometry relative="1" as="geometry" />
        </mxCell>
        <mxCell id="hSPSb0nQ-uBle7PO0G4F-5" value="B" style="shape=parallelogram;perimeter=parallelogramPerimeter;whiteSpace=wrap;html=1;fixedSize=1;" parent="1" vertex="1">
          <mxGeometry x="354" y="210" width="120" height="30" as="geometry" />
        </mxCell>
        <mxCell id="wcxcAWIR-rSJ2JVURTBD-4" value="" style="edgeStyle=orthogonalEdgeStyle;rounded=0;orthogonalLoop=1;jettySize=auto;html=1;" parent="1" source="hSPSb0nQ-uBle7PO0G4F-7" target="wcxcAWIR-rSJ2JVURTBD-3" edge="1">
          <mxGeometry relative="1" as="geometry" />
        </mxCell>
        <mxCell id="hSPSb0nQ-uBle7PO0G4F-7" value="C" style="shape=parallelogram;perimeter=parallelogramPerimeter;whiteSpace=wrap;html=1;fixedSize=1;" parent="1" vertex="1">
          <mxGeometry x="354" y="280" width="120" height="30" as="geometry" />
        </mxCell>
        <mxCell id="wcxcAWIR-rSJ2JVURTBD-6" value="" style="edgeStyle=orthogonalEdgeStyle;rounded=0;orthogonalLoop=1;jettySize=auto;html=1;" parent="1" source="wcxcAWIR-rSJ2JVURTBD-3" target="wcxcAWIR-rSJ2JVURTBD-5" edge="1">
          <mxGeometry relative="1" as="geometry" />
        </mxCell>
        <mxCell id="wcxcAWIR-rSJ2JVURTBD-10" value="" style="edgeStyle=orthogonalEdgeStyle;rounded=0;orthogonalLoop=1;jettySize=auto;html=1;" parent="1" source="wcxcAWIR-rSJ2JVURTBD-3" target="wcxcAWIR-rSJ2JVURTBD-9" edge="1">
          <mxGeometry relative="1" as="geometry" />
        </mxCell>
        <mxCell id="wcxcAWIR-rSJ2JVURTBD-3" value="A==0 y B==0?" style="rhombus;whiteSpace=wrap;html=1;" parent="1" vertex="1">
          <mxGeometry x="366" y="350" width="96" height="80" as="geometry" />
        </mxCell>
        <mxCell id="wcxcAWIR-rSJ2JVURTBD-5" value="FIN" style="rounded=1;whiteSpace=wrap;html=1;" parent="1" vertex="1">
          <mxGeometry x="530" y="375" width="82" height="30" as="geometry" />
        </mxCell>
        <mxCell id="wcxcAWIR-rSJ2JVURTBD-12" value="" style="edgeStyle=orthogonalEdgeStyle;rounded=0;orthogonalLoop=1;jettySize=auto;html=1;" parent="1" source="wcxcAWIR-rSJ2JVURTBD-9" target="wcxcAWIR-rSJ2JVURTBD-11" edge="1">
          <mxGeometry relative="1" as="geometry" />
        </mxCell>
        <mxCell id="wcxcAWIR-rSJ2JVURTBD-16" value="" style="edgeStyle=orthogonalEdgeStyle;rounded=0;orthogonalLoop=1;jettySize=auto;html=1;" parent="1" source="wcxcAWIR-rSJ2JVURTBD-9" target="wcxcAWIR-rSJ2JVURTBD-15" edge="1">
          <mxGeometry relative="1" as="geometry" />
        </mxCell>
        <mxCell id="wcxcAWIR-rSJ2JVURTBD-9" value="A==0 ?" style="rhombus;whiteSpace=wrap;html=1;" parent="1" vertex="1">
          <mxGeometry x="374" y="470" width="80" height="80" as="geometry" />
        </mxCell>
        <mxCell id="wcxcAWIR-rSJ2JVURTBD-14" value="" style="edgeStyle=orthogonalEdgeStyle;rounded=0;orthogonalLoop=1;jettySize=auto;html=1;" parent="1" source="wcxcAWIR-rSJ2JVURTBD-11" target="wcxcAWIR-rSJ2JVURTBD-13" edge="1">
          <mxGeometry relative="1" as="geometry" />
        </mxCell>
        <mxCell id="wcxcAWIR-rSJ2JVURTBD-11" value="-C/B" style="shape=parallelogram;perimeter=parallelogramPerimeter;whiteSpace=wrap;html=1;fixedSize=1;" parent="1" vertex="1">
          <mxGeometry x="520" y="495" width="96" height="30" as="geometry" />
        </mxCell>
        <mxCell id="wcxcAWIR-rSJ2JVURTBD-13" value="FIN" style="rounded=1;whiteSpace=wrap;html=1;" parent="1" vertex="1">
          <mxGeometry x="670" y="495" width="75" height="30" as="geometry" />
        </mxCell>
        <mxCell id="wcxcAWIR-rSJ2JVURTBD-20" value="" style="edgeStyle=orthogonalEdgeStyle;rounded=0;orthogonalLoop=1;jettySize=auto;html=1;" parent="1" source="wcxcAWIR-rSJ2JVURTBD-15" target="wcxcAWIR-rSJ2JVURTBD-19" edge="1">
          <mxGeometry relative="1" as="geometry" />
        </mxCell>
        <mxCell id="wcxcAWIR-rSJ2JVURTBD-24" value="" style="edgeStyle=orthogonalEdgeStyle;rounded=0;orthogonalLoop=1;jettySize=auto;html=1;" parent="1" source="wcxcAWIR-rSJ2JVURTBD-15" target="wcxcAWIR-rSJ2JVURTBD-23" edge="1">
          <mxGeometry relative="1" as="geometry" />
        </mxCell>
        <mxCell id="wcxcAWIR-rSJ2JVURTBD-15" value="B==0 ?" style="rhombus;whiteSpace=wrap;html=1;" parent="1" vertex="1">
          <mxGeometry x="374" y="610" width="80" height="80" as="geometry" />
        </mxCell>
        <mxCell id="wcxcAWIR-rSJ2JVURTBD-22" value="" style="edgeStyle=orthogonalEdgeStyle;rounded=0;orthogonalLoop=1;jettySize=auto;html=1;" parent="1" source="wcxcAWIR-rSJ2JVURTBD-19" target="wcxcAWIR-rSJ2JVURTBD-21" edge="1">
          <mxGeometry relative="1" as="geometry" />
        </mxCell>
        <mxCell id="wcxcAWIR-rSJ2JVURTBD-19" value="(-C/A)^2" style="shape=parallelogram;perimeter=parallelogramPerimeter;whiteSpace=wrap;html=1;fixedSize=1;" parent="1" vertex="1">
          <mxGeometry x="516" y="635" width="104" height="30" as="geometry" />
        </mxCell>
        <mxCell id="wcxcAWIR-rSJ2JVURTBD-21" value="FIN" style="rounded=1;whiteSpace=wrap;html=1;" parent="1" vertex="1">
          <mxGeometry x="671" y="635" width="73" height="30" as="geometry" />
        </mxCell>
        <mxCell id="wcxcAWIR-rSJ2JVURTBD-26" value="" style="edgeStyle=orthogonalEdgeStyle;rounded=0;orthogonalLoop=1;jettySize=auto;html=1;" parent="1" source="wcxcAWIR-rSJ2JVURTBD-23" target="wcxcAWIR-rSJ2JVURTBD-25" edge="1">
          <mxGeometry relative="1" as="geometry" />
        </mxCell>
        <mxCell id="wcxcAWIR-rSJ2JVURTBD-29" value="" style="edgeStyle=orthogonalEdgeStyle;rounded=0;orthogonalLoop=1;jettySize=auto;html=1;" parent="1" source="wcxcAWIR-rSJ2JVURTBD-23" target="wcxcAWIR-rSJ2JVURTBD-28" edge="1">
          <mxGeometry relative="1" as="geometry" />
        </mxCell>
        <mxCell id="wcxcAWIR-rSJ2JVURTBD-23" value="D &amp;lt; 0?" style="rhombus;whiteSpace=wrap;html=1;" parent="1" vertex="1">
          <mxGeometry x="374" y="740" width="80" height="80" as="geometry" />
        </mxCell>
        <mxCell id="wcxcAWIR-rSJ2JVURTBD-25" value="FIN" style="rounded=1;whiteSpace=wrap;html=1;" parent="1" vertex="1">
          <mxGeometry x="531" y="760" width="74" height="40" as="geometry" />
        </mxCell>
        <mxCell id="wcxcAWIR-rSJ2JVURTBD-32" value="" style="edgeStyle=orthogonalEdgeStyle;rounded=0;orthogonalLoop=1;jettySize=auto;html=1;" parent="1" source="wcxcAWIR-rSJ2JVURTBD-28" target="wcxcAWIR-rSJ2JVURTBD-31" edge="1">
          <mxGeometry relative="1" as="geometry" />
        </mxCell>
        <mxCell id="lbaEhPv1xRQ542kkHSL5-15" value="" style="edgeStyle=orthogonalEdgeStyle;rounded=0;orthogonalLoop=1;jettySize=auto;html=1;" parent="1" source="wcxcAWIR-rSJ2JVURTBD-28" target="lbaEhPv1xRQ542kkHSL5-14" edge="1">
          <mxGeometry relative="1" as="geometry" />
        </mxCell>
        <mxCell id="wcxcAWIR-rSJ2JVURTBD-28" value="D &amp;gt;= 0 ?" style="rhombus;whiteSpace=wrap;html=1;" parent="1" vertex="1">
          <mxGeometry x="374" y="880" width="80" height="80" as="geometry" />
        </mxCell>
        <mxCell id="wcxcAWIR-rSJ2JVURTBD-34" value="" style="edgeStyle=orthogonalEdgeStyle;rounded=0;orthogonalLoop=1;jettySize=auto;html=1;" parent="1" source="wcxcAWIR-rSJ2JVURTBD-31" target="wcxcAWIR-rSJ2JVURTBD-33" edge="1">
          <mxGeometry relative="1" as="geometry" />
        </mxCell>
        <mxCell id="wcxcAWIR-rSJ2JVURTBD-31" value="result1 = (-B+D^2)/(2*A)&lt;div&gt;result2 = (-B-D^2)/(2*A)&lt;/div&gt;" style="whiteSpace=wrap;html=1;" parent="1" vertex="1">
          <mxGeometry x="530" y="895" width="160" height="50" as="geometry" />
        </mxCell>
        <mxCell id="lbaEhPv1xRQ542kkHSL5-2" value="" style="edgeStyle=orthogonalEdgeStyle;rounded=0;orthogonalLoop=1;jettySize=auto;html=1;" parent="1" source="wcxcAWIR-rSJ2JVURTBD-33" target="lbaEhPv1xRQ542kkHSL5-1" edge="1">
          <mxGeometry relative="1" as="geometry" />
        </mxCell>
        <mxCell id="lbaEhPv1xRQ542kkHSL5-6" value="" style="edgeStyle=orthogonalEdgeStyle;rounded=0;orthogonalLoop=1;jettySize=auto;html=1;" parent="1" source="wcxcAWIR-rSJ2JVURTBD-33" target="lbaEhPv1xRQ542kkHSL5-5" edge="1">
          <mxGeometry relative="1" as="geometry" />
        </mxCell>
        <mxCell id="wcxcAWIR-rSJ2JVURTBD-33" value="result1 == result2 ?" style="rhombus;whiteSpace=wrap;html=1;" parent="1" vertex="1">
          <mxGeometry x="563.5" y="980" width="93" height="70" as="geometry" />
        </mxCell>
        <mxCell id="lbaEhPv1xRQ542kkHSL5-4" value="" style="edgeStyle=orthogonalEdgeStyle;rounded=0;orthogonalLoop=1;jettySize=auto;html=1;" parent="1" source="lbaEhPv1xRQ542kkHSL5-1" target="lbaEhPv1xRQ542kkHSL5-3" edge="1">
          <mxGeometry relative="1" as="geometry">
            <Array as="points">
              <mxPoint x="720" y="1098" />
            </Array>
          </mxGeometry>
        </mxCell>
        <mxCell id="lbaEhPv1xRQ542kkHSL5-1" value="result1" style="shape=parallelogram;perimeter=parallelogramPerimeter;whiteSpace=wrap;html=1;fixedSize=1;" parent="1" vertex="1">
          <mxGeometry x="680" y="997.5" width="79" height="35" as="geometry" />
        </mxCell>
        <mxCell id="lbaEhPv1xRQ542kkHSL5-3" value="FIN" style="rounded=1;whiteSpace=wrap;html=1;" parent="1" vertex="1">
          <mxGeometry x="569.25" y="1080" width="81.5" height="35" as="geometry" />
        </mxCell>
        <mxCell id="lbaEhPv1xRQ542kkHSL5-5" value="result1, result2" style="shape=parallelogram;perimeter=parallelogramPerimeter;whiteSpace=wrap;html=1;fixedSize=1;" parent="1" vertex="1">
          <mxGeometry x="454" y="997.5" width="77" height="35" as="geometry" />
        </mxCell>
        <mxCell id="lbaEhPv1xRQ542kkHSL5-13" value="" style="edgeStyle=orthogonalEdgeStyle;rounded=0;orthogonalLoop=1;jettySize=auto;html=1;exitX=0.5;exitY=1;exitDx=0;exitDy=0;" parent="1" target="lbaEhPv1xRQ542kkHSL5-3" edge="1">
          <mxGeometry relative="1" as="geometry">
            <mxPoint x="480.7" y="1032.5" as="sourcePoint" />
            <mxPoint x="563.45" y="1088.75" as="targetPoint" />
            <Array as="points">
              <mxPoint x="490" y="1033" />
              <mxPoint x="490" y="1098" />
              <mxPoint x="538" y="1098" />
              <mxPoint x="538" y="1100" />
              <mxPoint x="563" y="1100" />
              <mxPoint x="563" y="1098" />
            </Array>
          </mxGeometry>
        </mxCell>
        <mxCell id="lbaEhPv1xRQ542kkHSL5-14" value="FIN" style="rounded=1;whiteSpace=wrap;html=1;" parent="1" vertex="1">
          <mxGeometry x="382" y="1000" width="64" height="30" as="geometry" />
        </mxCell>
        <mxCell id="lbaEhPv1xRQ542kkHSL5-16" value="SI" style="text;strokeColor=none;align=center;fillColor=none;html=1;verticalAlign=middle;whiteSpace=wrap;rounded=0;" parent="1" vertex="1">
          <mxGeometry x="462.5" y="360" width="60" height="30" as="geometry" />
        </mxCell>
        <mxCell id="lbaEhPv1xRQ542kkHSL5-17" value="SI" style="text;strokeColor=none;align=center;fillColor=none;html=1;verticalAlign=middle;whiteSpace=wrap;rounded=0;" parent="1" vertex="1">
          <mxGeometry x="456" y="480" width="60" height="30" as="geometry" />
        </mxCell>
        <mxCell id="lbaEhPv1xRQ542kkHSL5-18" value="SI" style="text;strokeColor=none;align=center;fillColor=none;html=1;verticalAlign=middle;whiteSpace=wrap;rounded=0;" parent="1" vertex="1">
          <mxGeometry x="460" y="620" width="60" height="30" as="geometry" />
        </mxCell>
        <mxCell id="lbaEhPv1xRQ542kkHSL5-19" value="SI" style="text;strokeColor=none;align=center;fillColor=none;html=1;verticalAlign=middle;whiteSpace=wrap;rounded=0;" parent="1" vertex="1">
          <mxGeometry x="454" y="750" width="60" height="30" as="geometry" />
        </mxCell>
        <mxCell id="lbaEhPv1xRQ542kkHSL5-20" value="SI" style="text;strokeColor=none;align=center;fillColor=none;html=1;verticalAlign=middle;whiteSpace=wrap;rounded=0;" parent="1" vertex="1">
          <mxGeometry x="454" y="890" width="60" height="30" as="geometry" />
        </mxCell>
        <mxCell id="lbaEhPv1xRQ542kkHSL5-21" value="NO" style="text;strokeColor=none;align=center;fillColor=none;html=1;verticalAlign=middle;whiteSpace=wrap;rounded=0;" parent="1" vertex="1">
          <mxGeometry x="354" y="960" width="60" height="30" as="geometry" />
        </mxCell>
        <mxCell id="lbaEhPv1xRQ542kkHSL5-22" value="NO" style="text;strokeColor=none;align=center;fillColor=none;html=1;verticalAlign=middle;whiteSpace=wrap;rounded=0;" parent="1" vertex="1">
          <mxGeometry x="354" y="555" width="60" height="30" as="geometry" />
        </mxCell>
        <mxCell id="lbaEhPv1xRQ542kkHSL5-23" value="NO" style="text;strokeColor=none;align=center;fillColor=none;html=1;verticalAlign=middle;whiteSpace=wrap;rounded=0;" parent="1" vertex="1">
          <mxGeometry x="354" y="430" width="60" height="30" as="geometry" />
        </mxCell>
        <mxCell id="lbaEhPv1xRQ542kkHSL5-24" value="NO" style="text;strokeColor=none;align=center;fillColor=none;html=1;verticalAlign=middle;whiteSpace=wrap;rounded=0;" parent="1" vertex="1">
          <mxGeometry x="354" y="700" width="60" height="30" as="geometry" />
        </mxCell>
        <mxCell id="lbaEhPv1xRQ542kkHSL5-25" value="NO" style="text;strokeColor=none;align=center;fillColor=none;html=1;verticalAlign=middle;whiteSpace=wrap;rounded=0;" parent="1" vertex="1">
          <mxGeometry x="354" y="830" width="60" height="30" as="geometry" />
        </mxCell>
      </root>
    </mxGraphModel>
  </diagram>
</mxfile>
